<?xml version="1.0" standalone="no"?>
<!DOCTYPE svg PUBLIC "-//W3C//DTD SVG 20010904//EN"
 "http://www.w3.org/TR/2001/REC-SVG-20010904/DTD/svg10.dtd">
<svg version="1.0" xmlns="http://www.w3.org/2000/svg"
 width="512.000000pt" height="512.000000pt" viewBox="0 0 512.000000 512.000000"
 preserveAspectRatio="xMidYMid meet">

<g transform="translate(0.000000,512.000000) scale(0.100000,-0.100000)"
fill="#000000" stroke="none">
<path d="M1014 3046 c-27 -23 -28 -25 -27 -137 1 -111 2 -114 29 -137 26 -22
33 -23 136 -20 145 4 148 7 148 160 0 102 -1 110 -25 133 -22 23 -31 25 -129
25 -96 0 -107 -2 -132 -24z m227 -26 c17 -10 19 -22 19 -110 0 -119 -1 -120
-115 -120 -113 0 -115 2 -115 118 0 63 4 102 12 110 15 15 171 16 199 2z"/>
<path d="M1070 2910 l0 -70 75 0 75 0 0 70 0 70 -75 0 -75 0 0 -70z"/>
<path d="M1357 3064 c-14 -15 -7 -72 10 -78 24 -9 35 7 31 45 -3 32 -24 49
-41 33z"/>
<path d="M1447 3063 c-9 -8 -9 -56 -1 -77 9 -24 32 -19 36 7 4 32 52 31 56 -1
2 -15 9 -22 20 -20 19 4 27 37 18 74 -6 22 -12 24 -65 24 -32 0 -61 -3 -64 -7z"/>
<path d="M1655 3045 c-19 -18 -25 -35 -25 -70 0 -38 3 -45 20 -45 17 0 20 7
20 40 0 50 17 60 104 60 75 0 96 -14 96 -66 0 -27 4 -34 20 -34 16 0 20 7 20
35 0 46 -17 80 -47 94 -13 6 -60 11 -104 11 -72 0 -82 -3 -104 -25z"/>
<path d="M1720 2955 c0 -23 3 -25 50 -25 47 0 50 2 50 25 0 23 -3 25 -50 25
-47 0 -50 -2 -50 -25z"/>
<path d="M1350 2906 l0 -65 45 -7 45 -6 0 -44 c0 -37 -3 -44 -20 -44 -19 0
-20 -7 -20 -90 0 -83 1 -90 20 -90 13 0 20 7 20 20 0 13 10 24 25 30 14 5 25
16 25 25 0 8 9 15 20 15 19 0 20 -7 20 -90 0 -83 -1 -90 -20 -90 -17 0 -20 -7
-20 -45 0 -38 3 -45 20 -45 13 0 20 -7 20 -19 0 -13 8 -21 23 -23 14 -2 23
-11 25 -25 3 -19 -1 -23 -22 -23 -19 0 -26 5 -26 20 0 17 -8 19 -67 22 -62 3
-68 5 -71 26 -2 14 -10 22 -23 22 -18 0 -27 29 -13 42 11 12 44 -5 44 -23 0
-12 7 -19 20 -19 17 0 20 7 20 45 0 40 -2 45 -22 42 -17 -1 -24 4 -26 21 -2
14 -10 22 -22 22 -12 0 -20 8 -22 23 -2 14 -11 23 -26 25 -31 5 -27 46 6 50
20 3 22 9 22 68 0 57 2 64 20 64 16 0 20 7 20 31 0 24 -4 30 -17 27 -11 -2
-19 -14 -21 -31 -2 -19 -9 -27 -23 -27 -16 0 -19 -7 -19 -45 0 -41 -2 -45 -25
-45 -18 0 -25 5 -25 20 0 15 -7 20 -26 20 -33 0 -30 -33 4 -38 34 -5 31 -52
-3 -52 -18 0 -25 -5 -25 -20 0 -13 -7 -20 -20 -20 -17 0 -20 -7 -20 -45 l0
-45 -50 0 c-43 0 -50 3 -50 19 0 13 8 21 22 23 27 4 36 33 13 42 -22 8 -35 -1
-35 -25 0 -12 -7 -19 -20 -19 -13 0 -20 7 -20 20 0 15 -7 20 -26 20 -33 0 -30
-33 4 -38 30 -5 30 -39 0 -44 -30 -4 -32 -43 -3 -43 13 0 21 8 23 23 2 14 10
22 22 22 12 0 20 -8 22 -22 2 -14 10 -23 21 -22 9 0 40 1 67 2 l50 2 0 40 0
40 50 0 c43 0 50 -3 50 -20 0 -13 7 -20 20 -20 15 0 20 -7 20 -25 0 -18 -5
-25 -20 -25 -13 0 -20 -7 -20 -20 0 -13 7 -20 20 -20 17 0 20 -7 20 -45 0 -41
2 -45 25 -45 18 0 25 -5 25 -20 0 -13 7 -20 20 -20 13 0 20 7 20 20 0 15 7 20
25 20 23 0 25 -4 25 -45 0 -37 3 -45 18 -45 25 0 31 -7 25 -31 -8 -28 -47 -21
-51 9 -4 30 -36 25 -40 -6 -2 -14 -10 -22 -23 -22 -15 0 -19 -7 -19 -39 0 -24
5 -41 14 -44 18 -7 26 1 26 25 0 15 8 18 45 18 37 0 45 -3 45 -19 0 -19 23
-35 34 -24 14 15 5 43 -14 43 -21 0 -29 33 -11 44 16 10 41 -5 41 -25 0 -28
38 -25 42 4 2 14 10 22 23 22 16 0 21 -8 23 -42 l3 -43 65 0 c57 0 64 2 64 20
0 15 7 20 25 20 18 0 25 -5 25 -19 0 -19 23 -35 34 -24 14 15 5 43 -14 43 -13
0 -20 7 -20 19 0 10 9 21 20 24 26 7 28 50 3 45 -10 -2 -19 -13 -21 -26 -2
-14 -10 -22 -24 -22 -11 0 -22 -8 -25 -20 -6 -22 -37 -27 -49 -8 -8 12 24 40
37 32 4 -2 8 47 8 111 l0 115 -26 0 c-24 0 -25 2 -19 39 5 36 4 40 -16 43 -15
2 -24 11 -26 26 -2 14 -10 22 -23 22 -16 0 -19 -7 -19 -40 0 -33 3 -40 20 -40
15 0 20 -7 20 -25 0 -18 -5 -25 -20 -25 -17 0 -20 -7 -20 -45 0 -41 -2 -45
-25 -45 -23 0 -25 4 -25 45 0 38 3 45 20 45 13 0 20 7 20 20 0 13 -7 20 -20
20 -13 0 -20 -7 -20 -20 0 -14 -7 -20 -21 -20 -12 0 -23 8 -26 20 -3 11 -14
20 -24 20 -14 0 -19 7 -19 25 0 20 5 25 25 25 18 0 25 -5 25 -20 0 -13 7 -20
20 -20 17 0 20 7 20 39 0 33 -4 40 -22 43 -21 3 -23 8 -23 68 0 60 2 65 23 68
16 3 22 -2 22 -16 0 -25 38 -37 42 -13 2 9 2 28 0 44 -4 24 -8 27 -43 27 -32
0 -39 -3 -39 -20 0 -15 -7 -20 -25 -20 -20 0 -25 5 -25 25 0 18 5 25 19 25 10
0 21 9 24 21 3 11 15 23 26 26 27 7 27 33 1 33 -15 0 -20 7 -20 25 0 16 6 25
15 25 11 0 15 12 15 44 0 30 -5 46 -15 50 -12 4 -15 -4 -15 -44 0 -42 -3 -50
-19 -50 -12 0 -21 -9 -25 -25 -9 -37 -43 -33 -48 6 -7 48 2 79 23 79 15 0 19
7 19 40 0 33 -3 40 -19 40 -13 0 -21 -8 -23 -22 -2 -15 -10 -23 -23 -23 -13 0
-21 8 -23 23 -3 19 -9 22 -48 22 l-44 0 0 -64z m88 -3 c-3 -31 -34 -44 -44
-19 -9 24 3 46 26 46 17 0 21 -5 18 -27z m52 -188 c0 -20 -5 -25 -25 -25 -20
0 -25 5 -25 25 0 20 5 25 25 25 20 0 25 -5 25 -25z m265 -425 c0 -39 -3 -45
-22 -48 -23 -3 -28 8 -24 53 2 35 10 47 28 43 14 -3 18 -13 18 -48z m-135 -64
c0 -14 -4 -27 -9 -30 -15 -10 -41 5 -41 23 0 23 9 31 32 31 12 0 18 -7 18 -24z
m140 -51 c0 -20 -5 -25 -24 -25 -15 0 -26 7 -29 19 -6 25 0 31 30 31 18 0 23
-5 23 -25z"/>
<path d="M1710 2845 c0 -4 170 -419 212 -517 20 -48 21 -48 68 -48 l48 0 30
73 c150 362 202 488 202 492 0 3 -24 5 -54 5 l-54 0 -47 -122 c-121 -312 -122
-313 -132 -292 -6 10 -45 108 -87 217 l-78 197 -54 0 c-30 0 -54 -2 -54 -5z"/>
<path d="M2350 2565 l0 -285 50 0 50 0 0 285 0 285 -50 0 -50 0 0 -285z"/>
<path d="M2580 2565 l0 -285 50 0 49 0 3 98 3 97 60 0 60 0 65 -95 65 -95 62
-3 62 -3 -70 102 c-70 105 -77 119 -58 119 24 0 72 45 90 84 35 78 13 180 -47
223 -47 34 -101 43 -251 43 l-143 0 0 -285z m310 180 c66 -34 57 -141 -14
-170 -21 -9 -68 -15 -116 -15 l-80 0 0 100 0 100 90 0 c61 0 101 -5 120 -15z"/>
<path d="M3212 2603 c-55 -136 -108 -265 -116 -285 l-16 -38 53 0 54 0 24 63
25 62 130 3 131 3 24 -63 25 -63 52 -3 c29 -2 52 1 52 5 0 4 -51 132 -114 283
l-113 275 -55 3 -55 3 -101 -248z m207 7 c23 -58 41 -108 41 -112 0 -5 -43 -8
-96 -8 -73 0 -95 3 -91 13 3 6 24 61 47 120 23 60 46 105 50 100 5 -4 27 -55
49 -113z"/>
<path d="M3722 2568 l3 -283 198 -3 197 -2 0 45 0 44 -147 3 -148 3 -3 238 -2
237 -50 0 -50 0 2 -282z"/>
<path d="M993 2693 c-8 -3 -13 -21 -13 -44 l0 -39 45 0 c38 0 45 3 45 20 0 14
7 20 23 21 12 1 31 2 42 3 20 1 25 6 25 29 0 10 -28 13 -82 8 -5 -1 -8 -10 -8
-21 0 -13 -7 -20 -20 -20 -13 0 -20 7 -20 19 0 20 -17 31 -37 24z"/>
<path d="M1120 2580 c0 -13 7 -20 20 -20 13 0 20 7 20 20 0 13 -7 20 -20 20
-13 0 -20 -7 -20 -20z"/>
<path d="M1444 2545 c-4 -9 -2 -21 4 -27 15 -15 44 -1 40 19 -4 23 -36 29 -44
8z"/>
<path d="M1624 2545 c-7 -18 3 -35 22 -35 8 0 14 10 14 25 0 27 -27 35 -36 10z"/>
<path d="M1260 2445 c0 -18 5 -25 20 -25 15 0 20 7 20 25 0 18 -5 25 -20 25
-15 0 -20 -7 -20 -25z"/>
<path d="M1016 2359 c-25 -20 -26 -23 -26 -135 0 -154 0 -154 153 -154 106 0
115 2 135 23 20 21 22 34 22 134 0 109 -1 112 -26 132 -23 18 -41 21 -129 21
-88 0 -106 -3 -129 -21z m232 -31 c18 -18 16 -192 -2 -207 -9 -8 -48 -11 -112
-9 l-99 3 -3 99 c-2 64 1 103 9 112 15 18 189 20 207 2z"/>
<path d="M1077 2294 c-4 -4 -7 -38 -7 -76 l0 -68 75 0 76 0 -3 73 -3 72 -65 3
c-36 2 -69 0 -73 -4z"/>
<path d="M1350 2220 c0 -13 7 -20 20 -20 13 0 20 7 20 20 0 13 -7 20 -20 20
-13 0 -20 -7 -20 -20z"/>
<path d="M2030 2015 c0 -57 4 -95 10 -95 6 0 10 16 10 35 l0 35 48 0 c56 0 82
20 82 63 0 37 -34 57 -97 57 l-53 0 0 -95z m132 50 c17 -38 -12 -65 -69 -65
l-43 0 0 45 0 45 50 0 c44 0 52 -3 62 -25z"/>
<path d="M2290 2015 c0 -57 4 -95 10 -95 6 0 10 16 10 35 0 35 0 35 44 35 38
0 47 -4 70 -35 15 -19 32 -35 37 -35 6 0 -2 16 -17 35 -15 20 -25 37 -23 38 2
1 13 7 24 13 12 6 21 24 23 42 5 45 -26 62 -110 62 l-68 0 0 -95z m160 54 c8
-13 7 -25 0 -39 -9 -17 -21 -20 -80 -20 l-70 0 0 38 c0 21 2 41 4 43 2 2 34 2
70 1 53 -3 68 -8 76 -23z"/>
<path d="M2631 2084 c-25 -20 -31 -34 -31 -64 0 -52 8 -68 41 -85 43 -23 77
-18 110 14 21 22 29 39 29 66 0 27 -8 44 -29 66 -37 37 -79 38 -120 3z m114
-14 c12 -12 19 -33 19 -55 0 -74 -83 -106 -131 -51 -31 37 -29 71 7 108 25 24
36 29 58 23 15 -3 36 -15 47 -25z"/>
<path d="M2900 2015 l0 -97 60 4 c78 6 110 33 110 93 0 60 -32 87 -110 93
l-60 4 0 -97z m140 47 c26 -32 25 -63 -1 -96 -17 -22 -28 -26 -70 -26 l-49 0
0 74 c0 70 1 75 23 78 42 6 77 -4 97 -30z"/>
<path d="M3182 2033 c-2 -74 0 -83 20 -97 30 -21 71 -20 98 2 19 15 24 31 28
95 3 54 1 77 -7 77 -7 0 -11 -25 -11 -70 0 -58 -4 -74 -21 -91 -15 -15 -28
-19 -47 -14 -41 10 -47 20 -53 103 l-6 77 -1 -82z"/>
<path d="M3461 2084 c-26 -21 -31 -33 -31 -67 1 -78 64 -118 135 -85 38 17 30
29 -10 13 -40 -17 -75 -8 -99 27 -24 34 -19 66 14 100 31 31 45 32 105 13 20
-7 20 -6 1 9 -30 24 -80 20 -115 -10z"/>
<path d="M3650 2100 c0 -5 14 -10 30 -10 l30 0 2 -87 c1 -68 2 -74 5 -28 2 33
6 75 9 94 5 29 8 32 30 28 13 -2 27 0 30 4 3 5 -27 9 -65 9 -41 0 -71 -4 -71
-10z"/>
<path d="M3886 2091 c-28 -31 -12 -58 44 -78 50 -18 64 -32 54 -57 -8 -22 -44
-26 -81 -11 -38 16 -46 4 -8 -13 59 -27 109 -5 103 43 -3 26 -10 32 -55 49
-55 19 -68 41 -38 66 14 11 32 10 82 -6 17 -5 17 -4 -1 10 -27 22 -79 20 -100
-3z"/>
</g>
</svg>
